PathFileType	4	(X/Y/Z)	 s09c0302.trc
DataRate	CameraRate	NumFrames	NumMarkers	Units	OrigDataRate	OrigDataStartFrame	OrigNumFrames
200	200	6	50	mm	200	1001	2000
Frame#	Time	racr			lacr			c7			jug			rlel			rdr			llel			ldr			s2			lic			ric			lasi			rasi			rpsi			lpsi			rgt			lgt			rth1			rth2			rth3			rth4			rlfc			rmfc			rsh1			rsh2			rsh3			rsh4			rlmal			rmmal			rcal			rtoe			rmt5			lth1			lth2			lth4			lth3			llfc			lmfc			llmal			lmmal			lcal			lmt5			lsh1			lsh2			lsh3			lsh4			ltoe			SBIKE			LBIKE			RBIKE			
		X1	Y1	Z1	X2	Y2	Z2	X3	Y3	Z3	X4	Y4	Z4	X5	Y5	Z5	X6	Y6	Z6	X7	Y7	Z7	X8	Y8	Z8	X9	Y9	Z9	X10	Y10	Z10	X11	Y11	Z11	X12	Y12	Z12	X13	Y13	Z13	X14	Y14	Z14	X15	Y15	Z15	X16	Y16	Z16	X17	Y17	Z17	X18	Y18	Z18	X19	Y19	Z19	X20	Y20	Z20	X21	Y21	Z21	X22	Y22	Z22	X23	Y23	Z23	X24	Y24	Z24	X25	Y25	Z25	X26	Y26	Z26	X27	Y27	Z27	X28	Y28	Z28	X29	Y29	Z29	X30	Y30	Z30	X31	Y31	Z31	X32	Y32	Z32	X33	Y33	Z33	X34	Y34	Z34	X35	Y35	Z35	X36	Y36	Z36	X37	Y37	Z37	X38	Y38	Z38	X39	Y39	Z39	X40	Y40	Z40	X41	Y41	Z41	X42	Y42	Z42	X43	Y43	Z43	X44	Y44	Z44	X45	Y45	Z45	X46	Y46	Z46	X47	Y47	Z47	X48	Y48	Z48	X49	Y49	Z49	X50	Y50	Z50	
1001	5.0050	749.415205	1344.052674	-125.690285	683.925734	1306.959978	-462.544675	710.065860	1366.248094	-282.619807	709.337814	1232.627386	-282.143978	658.279004	1105.721448	-31.993423	724.252635	866.309705	-58.919489	533.190401	1063.233504	-494.809470	702.665997	887.468868	-434.807578	239.683921	1187.489884	-176.649587	341.450973	1186.436311	-354.612376	405.887134	1130.992256	-72.428984	372.280443	1117.535642	-346.377582	422.126188	1073.607480	-108.879425	288.537100	1201.014700	-123.385540	260.915879	1227.534676	-225.057024	339.741786	995.462420	-34.789577	283.664721	1089.555237	-401.030491	364.133166	871.002973	-55.084743	396.869584	790.143124	-68.728086	377.880236	703.720568	-76.454927	424.192384	794.284145	-92.629218	367.794283	607.952473	-103.446735	335.051412	594.136369	-197.563720	306.051267	528.263950	-64.439855	290.208672	440.954259	-76.470233	234.298945	373.433164	-71.788690	311.470917	432.916703	-109.867131	183.598765	282.300104	-69.580804	188.402069	290.489898	-146.201418	104.320882	294.636603	-109.167275	305.924206	122.427497	-131.750012	236.115508	159.372456	-61.221097	394.838262	1000.842570	-420.321323	475.495270	972.499344	-423.988881	497.945098	999.915030	-409.305483	533.438960	904.793462	-435.827705	598.924868	823.777816	-430.298646	623.215760	803.416118	-331.365155	321.266612	580.049641	-406.813167	341.311102	586.363259	-333.532474	236.753620	575.072177	-364.212457	377.417220	475.527058	-432.231499	524.657293	757.065317	-441.708702	474.371459	686.925041	-427.260332	392.317768	652.241670	-418.958722	495.888319	667.756773	-400.733187	472.123886	459.471551	-366.562070	-64.530362	852.419282	-238.001576	20.860473	85.277441	-442.017536	21.099172	84.134904	-43.673899	
1002	5.0100	749.824651	1344.092303	-128.109215	682.406850	1306.885533	-464.281113	709.687651	1367.400597	-285.785087	708.518629	1233.794835	-284.559797	659.259873	1106.480969	-32.975549	724.398335	866.460779	-58.921393	531.200084	1063.015737	-494.840014	702.381264	887.592103	-435.015591	240.128226	1188.090625	-176.103212	340.520381	1187.377564	-354.653180	406.598905	1132.080353	-73.028812	372.083831	1118.826826	-347.095115	422.549728	1074.727786	-109.704986	289.115867	1201.933259	-123.077855	261.001288	1228.012333	-224.816387	341.328656	996.583943	-34.124177	281.878897	1088.934907	-400.335722	366.709605	871.812180	-54.790276	400.176519	791.362078	-68.805451	382.016120	704.724593	-76.651183	427.424845	795.818728	-92.917315	372.041483	609.104720	-103.143888	339.314375	595.177919	-197.353431	306.816551	530.477245	-64.269196	288.204539	443.641109	-76.232368	230.138138	378.065296	-71.725191	309.371209	434.951597	-109.495440	176.857133	288.191362	-69.397730	182.097189	296.399577	-146.339144	97.825548	301.948456	-109.343107	296.309175	126.349311	-131.523999	227.121999	164.638224	-61.059031	392.600646	997.812772	-419.434457	472.953280	969.384059	-424.331224	494.171824	996.921833	-412.192161	530.789729	901.302781	-435.521170	597.460469	821.112064	-430.018378	621.960457	801.548964	-331.181136	324.886700	571.585236	-406.296874	344.531792	578.915567	-332.899927	240.371114	563.414086	-364.205911	385.053391	470.244799	-432.630663	524.453174	752.754972	-441.473777	475.584438	681.590888	-426.846898	395.043805	645.141452	-418.174763	497.450972	663.167845	-400.107775	480.378437	458.386430	-367.058979	-64.512402	852.433196	-238.238016	20.858980	85.230595	-442.012527	21.109659	84.114639	-43.667740	
1003	5.0150	750.000779	1344.751796	-130.238080	680.922042	1306.557026	-466.079524	709.141785	1368.825671	-289.096899	707.669664	1235.245770	-286.702665	660.426070	1107.287741	-34.048963	724.582847	866.637185	-58.886913	529.742210	1062.664261	-494.785914	702.131813	887.657777	-435.212566	240.516893	1188.812971	-175.993784	339.704750	1188.010720	-354.692553	407.175870	1133.690201	-73.523734	371.846168	1119.672313	-347.570056	423.015199	1076.295334	-110.240694	289.494457	1202.895725	-123.063727	261.303879	1227.379967	-225.837969	342.782620	998.004434	-33.693408	280.476737	1087.660085	-399.789914	369.457589	872.831281	-54.776710	403.867995	792.852295	-68.860051	386.684505	706.006707	-76.891006	430.805132	797.663158	-93.224246	377.395322	610.368639	-102.545078	344.163223	596.207641	-197.150035	308.240373	533.074592	-64.135984	286.819058	447.012330	-76.091142	226.663704	383.214713	-71.676899	307.925647	437.312494	-109.147560	170.874835	294.705600	-69.224700	176.748264	302.721342	-146.480453	91.990551	310.177961	-109.583670	286.901939	130.492102	-131.309668	218.538686	170.333450	-60.960100	390.117833	994.167850	-418.573188	470.090062	965.388935	-424.902871	492.682370	993.313649	-412.866168	527.779677	896.907732	-435.148009	595.406887	817.518991	-429.560154	620.333631	798.747968	-331.152514	328.432685	562.329420	-406.131072	347.666319	570.796184	-332.437683	243.849945	550.852569	-364.411846	392.371954	464.114206	-432.796164	523.898881	747.611065	-441.303223	476.490209	675.437549	-426.506695	395.988384	637.603138	-418.291829	498.649976	657.837271	-399.567387	488.191825	456.745920	-367.541527	-64.505866	852.376939	-238.343484	20.899001	85.208286	-442.038015	21.142105	84.128360	-43.654791	
1004	5.0200	749.941970	1345.716003	-132.220142	679.274188	1306.195594	-467.962577	708.308627	1370.418815	-292.318029	706.891072	1236.876860	-288.555865	661.609995	1108.188153	-35.125422	724.771012	866.819841	-58.870793	528.451629	1062.264809	-494.869131	701.886753	887.657897	-435.438188	240.775376	1189.371651	-176.151507	339.174652	1188.324812	-355.006572	407.639417	1135.452466	-73.980648	371.704078	1120.324847	-348.257763	423.402188	1078.070115	-110.547158	289.721390	1203.870625	-123.348066	261.330115	1228.029616	-226.353437	344.107082	999.423041	-33.365870	279.335366	1085.854716	-399.344282	372.305119	873.931852	-54.779926	407.790644	794.485396	-68.995561	391.944868	707.395370	-77.163867	434.811925	799.939798	-93.181082	382.213122	611.243351	-103.073486	349.341258	597.374301	-196.954477	310.220380	535.900036	-64.018457	285.977075	450.438161	-75.916067	223.869880	388.738616	-71.612111	307.044227	440.041964	-108.732635	165.592181	301.697976	-69.069138	172.104199	309.636230	-146.674274	86.966359	319.110052	-109.572713	277.890129	135.174445	-131.059410	210.410263	176.582150	-60.838923	387.695425	990.213578	-417.709201	467.415144	960.970034	-425.135924	491.206939	989.598346	-414.542839	524.591913	892.051811	-434.686841	592.861353	813.269922	-429.592812	618.329758	795.199096	-331.016435	331.921716	552.647389	-406.166606	350.850279	562.019533	-332.353660	247.640111	537.932276	-364.628434	399.389573	457.176128	-433.237143	523.115727	741.961095	-441.213706	477.225803	668.705517	-426.289262	398.148688	628.681613	-417.943267	499.941195	651.888219	-399.458337	495.675546	453.917464	-367.922458	-64.552538	852.330945	-238.360792	20.884441	85.167126	-442.037039	21.148627	84.119297	-43.650509	
1005	5.0250	749.682016	1347.123054	-134.129708	677.566228	1305.855409	-469.984479	707.217770	1372.171245	-295.472693	706.281085	1238.682693	-290.211628	662.833866	1109.257998	-36.237207	724.955818	866.988642	-58.961212	527.346594	1061.831752	-494.980126	701.613430	887.694732	-435.708469	240.955570	1189.977334	-176.721126	338.854261	1188.351307	-355.701370	407.923480	1137.296621	-74.508127	371.507444	1120.543726	-348.798987	423.791041	1079.986094	-110.716267	289.825757	1204.863979	-124.005098	261.293568	1228.416768	-227.100680	345.283514	1001.138972	-33.105495	278.418997	1083.742620	-398.967038	375.290778	875.054130	-54.599336	411.932187	796.371493	-69.119896	397.584458	708.993110	-77.549991	438.881985	802.080922	-93.309913	387.896725	612.143764	-102.812332	354.832954	598.609523	-196.836782	312.796591	538.982626	-63.992791	285.769708	454.400018	-75.860361	221.737347	394.746634	-71.567734	306.823453	443.121937	-108.348909	161.211017	309.163031	-68.809791	168.091055	316.966161	-146.716295	82.666272	328.468568	-109.649329	269.187359	140.060540	-130.923512	202.775209	183.319718	-60.708610	385.361329	986.211002	-417.070870	464.783225	956.360749	-425.307525	488.974540	985.039257	-415.943051	521.358388	886.708984	-433.791909	589.924249	808.470515	-429.317714	616.049740	791.123960	-331.043410	335.513245	542.382830	-406.691336	354.040977	552.354674	-332.637086	251.670229	524.934006	-364.903885	406.083696	449.615211	-433.785452	522.314152	735.384957	-440.581939	477.915671	661.293038	-426.148681	400.137357	619.393759	-417.804682	500.125332	644.988088	-397.518827	502.583898	450.071917	-368.542078	-64.550957	852.315737	-238.457735	20.883001	85.150875	-442.043410	21.143883	84.128167	-43.662321	
1006	5.0300	749.056336	1348.842905	-135.919820	675.874759	1305.644482	-471.891522	705.790103	1374.077596	-298.433499	705.785506	1240.658603	-291.705971	663.972543	1110.373619	-37.475675	726.661056	867.147677	-59.135182	526.390044	1061.440336	-495.307613	701.303285	887.723237	-435.973319	240.932383	1190.529648	-177.585340	338.705312	1188.096459	-356.501893	408.041316	1139.295708	-75.117556	371.313488	1120.257868	-349.060014	423.886710	1081.849472	-110.975789	289.758677	1205.752853	-125.041720	261.159279	1228.922104	-228.240026	346.201370	1002.923342	-33.013568	277.687765	1081.290387	-398.697954	378.402785	876.288905	-54.369043	416.371888	798.022079	-69.122391	403.491371	710.827200	-78.165161	442.982892	804.531017	-93.330350	393.460802	613.096819	-103.081591	360.489879	599.955822	-196.717629	315.916734	542.230203	-64.077917	286.190890	458.629025	-75.835974	220.224815	401.056059	-71.519620	307.006232	446.461857	-108.127619	157.427343	317.105665	-68.705141	165.375487	324.659963	-146.787405	79.281420	338.519581	-109.535224	260.981797	145.346180	-130.713256	195.713664	190.457646	-60.593637	383.337298	982.097840	-416.426093	462.472639	951.818987	-425.275299	487.105860	979.791992	-415.994381	518.321801	881.251666	-433.041782	586.937658	803.338118	-429.042270	613.454837	786.593229	-330.992478	339.260750	531.722236	-407.158062	357.142127	542.597861	-333.043172	255.601422	511.770090	-365.637021	412.593756	441.419589	-434.165278	520.998816	728.797646	-440.912853	478.623333	653.705860	-426.097253	401.957166	610.075026	-418.025552	500.970887	638.054584	-397.160064	508.863978	445.394606	-368.948640	-64.548268	852.308964	-238.567008	20.876749	85.123012	-442.074148	21.141377	84.123973	-43.700765	
